<?xml version="1.0" standalone="no"?><!DOCTYPE svg PUBLIC "-//W3C//DTD SVG 1.1//EN" "http://www.w3.org/Graphics/SVG/1.1/DTD/svg11.dtd"><svg class="icon" width="1em" height="1em" fill="currentColor" viewBox="0 0 1024 1024" version="1.1" xmlns="http://www.w3.org/2000/svg"><path d="M513.704 1024C355.576 1024 224.2 895.776 224.2 737.664L224.2 286.336C224.2 128.224 355.576 0 513.704 0 671.816 0 800.04 128.224 800.04 286.336L800.04 737.664C800.04 895.776 671.816 1024 513.704 1024ZM736.04 286.336C736.04 163.744 636.296 64 513.704 64 391.096 64 288.2 163.744 288.2 286.336L288.2 737.664C288.2 860.256 391.096 960 513.704 960 636.296 960 736.04 860.256 736.04 737.664L736.04 286.336ZM512.456 416C494.776 416 480.456 401.664 480.456 384L480.456 224C480.456 206.32 494.776 192 512.456 192 530.136 192 544.456 206.32 544.456 224L544.456 384C544.456 401.664 530.136 416 512.456 416Z" /></svg>